<svg width="175" height="26" viewBox="0 0 175 26" fill="none" xmlns="http://www.w3.org/2000/svg">
<path d="M21.352 2.56V7.082H14.042V25H8.194V7.082H0.85V2.56H21.352ZM28.7486 25.34C26.8673 25.34 25.2353 24.9887 23.8526 24.286C22.4926 23.5833 21.4386 22.5747 20.6906 21.26C19.9426 19.9453 19.5686 18.3587 19.5686 16.5C19.5686 14.6413 19.9426 13.0547 20.6906 11.74C21.4386 10.4253 22.4813 9.41667 23.8186 8.714C25.1786 8.01133 26.7313 7.66 28.4766 7.66C30.2673 7.66 31.7859 8.01133 33.0326 8.714C34.3019 9.394 35.2653 10.346 35.9226 11.57C36.5799 12.7713 36.9086 14.154 36.9086 15.718C36.9086 16.126 36.8973 16.534 36.8746 16.942C36.8519 17.35 36.8179 17.69 36.7726 17.962H23.3086V14.868H34.2226L31.4686 15.922C31.4686 14.562 31.2193 13.5193 30.7206 12.794C30.2446 12.0687 29.4966 11.706 28.4766 11.706C27.7513 11.706 27.1279 11.876 26.6066 12.216C26.1079 12.556 25.7226 13.0887 25.4506 13.814C25.2013 14.5393 25.0766 15.4687 25.0766 16.602C25.0766 17.7127 25.2239 18.6193 25.5186 19.322C25.8133 20.002 26.2326 20.5007 26.7766 20.818C27.3206 21.1127 27.9779 21.26 28.7486 21.26C29.6099 21.26 30.2899 21.09 30.7886 20.75C31.3099 20.41 31.6953 19.934 31.9446 19.322L36.5686 20.852C36.2513 21.8267 35.6959 22.654 34.9026 23.334C34.1319 23.9913 33.2026 24.49 32.1146 24.83C31.0493 25.17 29.9273 25.34 28.7486 25.34ZM47.52 7.66C49.2427 7.66 50.6707 7.90933 51.804 8.408C52.96 8.884 53.8554 9.53 54.49 10.346C55.1474 11.1393 55.5554 12.0007 55.714 12.93L50.376 14.698C50.2174 13.7233 49.9227 12.998 49.492 12.522C49.084 12.0233 48.4834 11.774 47.69 11.774C46.9647 11.774 46.3527 11.944 45.854 12.284C45.378 12.6013 45.0154 13.1227 44.766 13.848C44.5167 14.5507 44.392 15.4573 44.392 16.568C44.392 17.6787 44.528 18.5853 44.8 19.288C45.072 19.968 45.4574 20.4667 45.956 20.784C46.4547 21.0787 47.044 21.226 47.724 21.226C48.2907 21.226 48.7554 21.124 49.118 20.92C49.5034 20.6933 49.8207 20.376 50.07 19.968C50.3194 19.56 50.478 19.0613 50.546 18.472L55.748 20.138C55.5894 21.1353 55.1587 22.0307 54.456 22.824C53.776 23.5947 52.8694 24.2067 51.736 24.66C50.6027 25.1133 49.2767 25.34 47.758 25.34C45.8994 25.34 44.2787 25 42.896 24.32C41.5134 23.6173 40.448 22.6087 39.7 21.294C38.952 19.9567 38.578 18.3587 38.578 16.5C38.578 14.6413 38.952 13.0547 39.7 11.74C40.448 10.4027 41.4907 9.394 42.828 8.714C44.188 8.01133 45.752 7.66 47.52 7.66ZM58.0731 25V0.792H63.8531V11.094C64.3517 9.96067 65.0657 9.11067 65.9951 8.544C66.9244 7.95467 68.0011 7.66 69.2251 7.66C70.4037 7.66 71.4237 7.88667 72.2851 8.34C73.1691 8.79333 73.8604 9.462 74.3591 10.346C74.8577 11.23 75.1071 12.3407 75.1071 13.678V25H69.3271V15.276C69.3271 14.052 69.1004 13.2133 68.6471 12.76C68.2164 12.284 67.6384 12.046 66.9131 12.046C66.3691 12.046 65.8591 12.182 65.3831 12.454C64.9071 12.726 64.5331 13.1567 64.2611 13.746C63.9891 14.3353 63.8531 15.106 63.8531 16.058V25H58.0731ZM96.1945 2.56V7.082H88.8845V25H83.0365V7.082H75.6925V2.56H96.1945ZM96.2912 25V8H101.391L101.629 11.672C102.06 10.4027 102.695 9.41667 103.533 8.714C104.395 8.01133 105.483 7.66 106.797 7.66C107.228 7.66 107.591 7.694 107.885 7.762C108.203 7.83 108.452 7.92067 108.633 8.034L108.055 12.794C107.829 12.7033 107.534 12.6353 107.171 12.59C106.831 12.522 106.412 12.488 105.913 12.488C105.233 12.488 104.599 12.6353 104.009 12.93C103.42 13.2247 102.944 13.6667 102.581 14.256C102.241 14.8227 102.071 15.548 102.071 16.432V25H96.2912ZM119.541 14.222C119.541 13.4287 119.314 12.8053 118.861 12.352C118.43 11.876 117.841 11.638 117.093 11.638C116.345 11.638 115.699 11.8307 115.155 12.216C114.633 12.5787 114.271 13.236 114.067 14.188L109.171 13.032C109.488 11.4 110.327 10.0967 111.687 9.122C113.047 8.14733 114.962 7.66 117.433 7.66C119.087 7.66 120.493 7.90933 121.649 8.408C122.827 8.884 123.723 9.60933 124.335 10.584C124.969 11.536 125.287 12.7147 125.287 14.12V20.342C125.287 21.226 125.683 21.668 126.477 21.668C126.885 21.668 127.213 21.6227 127.463 21.532L127.123 24.83C126.443 25.1473 125.615 25.306 124.641 25.306C123.757 25.306 122.975 25.17 122.295 24.898C121.615 24.6033 121.082 24.1727 120.697 23.606C120.311 23.0167 120.119 22.28 120.119 21.396V21.192L120.765 20.954C120.765 21.9287 120.47 22.7447 119.881 23.402C119.314 24.0593 118.566 24.5467 117.637 24.864C116.73 25.1813 115.778 25.34 114.781 25.34C113.625 25.34 112.616 25.1587 111.755 24.796C110.893 24.4333 110.225 23.912 109.749 23.232C109.295 22.5293 109.069 21.668 109.069 20.648C109.069 19.424 109.431 18.4153 110.157 17.622C110.905 16.806 112.072 16.2393 113.659 15.922L120.085 14.596L120.051 17.656L116.787 18.336C116.107 18.472 115.597 18.676 115.257 18.948C114.939 19.1973 114.781 19.5827 114.781 20.104C114.781 20.6027 114.962 20.9767 115.325 21.226C115.687 21.4753 116.118 21.6 116.617 21.6C117.002 21.6 117.365 21.5433 117.705 21.43C118.067 21.3167 118.385 21.1467 118.657 20.92C118.929 20.6707 119.144 20.3647 119.303 20.002C119.461 19.6393 119.541 19.2087 119.541 18.71V14.222ZM139.384 8H145.368L139.248 25H132.346L126.226 8H132.312L135.814 20.954L139.384 8ZM154.709 25.34C152.828 25.34 151.196 24.9887 149.813 24.286C148.453 23.5833 147.399 22.5747 146.651 21.26C145.903 19.9453 145.529 18.3587 145.529 16.5C145.529 14.6413 145.903 13.0547 146.651 11.74C147.399 10.4253 148.442 9.41667 149.779 8.714C151.139 8.01133 152.692 7.66 154.437 7.66C156.228 7.66 157.747 8.01133 158.993 8.714C160.263 9.394 161.226 10.346 161.883 11.57C162.541 12.7713 162.869 14.154 162.869 15.718C162.869 16.126 162.858 16.534 162.835 16.942C162.813 17.35 162.779 17.69 162.733 17.962H149.269V14.868H160.183L157.429 15.922C157.429 14.562 157.18 13.5193 156.681 12.794C156.205 12.0687 155.457 11.706 154.437 11.706C153.712 11.706 153.089 11.876 152.567 12.216C152.069 12.556 151.683 13.0887 151.411 13.814C151.162 14.5393 151.037 15.4687 151.037 16.602C151.037 17.7127 151.185 18.6193 151.479 19.322C151.774 20.002 152.193 20.5007 152.737 20.818C153.281 21.1127 153.939 21.26 154.709 21.26C155.571 21.26 156.251 21.09 156.749 20.75C157.271 20.41 157.656 19.934 157.905 19.322L162.529 20.852C162.212 21.8267 161.657 22.654 160.863 23.334C160.093 23.9913 159.163 24.49 158.075 24.83C157.01 25.17 155.888 25.34 154.709 25.34ZM171.135 0.792V19.22C171.135 19.968 171.259 20.5007 171.509 20.818C171.758 21.1353 172.177 21.294 172.767 21.294C173.107 21.294 173.39 21.2713 173.617 21.226C173.843 21.1807 174.115 21.1127 174.433 21.022L174.059 24.49C173.651 24.7393 173.118 24.9433 172.461 25.102C171.803 25.2607 171.157 25.34 170.523 25.34C168.709 25.34 167.395 24.9207 166.579 24.082C165.763 23.2433 165.355 21.872 165.355 19.968V0.792H171.135Z" fill="white"/>
</svg>
